# xmcd
#
# Track frame offsets: 
#        150
#        18027
#        41857
#        71100
#
# Disc length: 4440 seconds
#
# Revision: 0
# Processed by: cddbd v1.5.2PL0 Copyright (c) Steve Scherf et al.
# Submitted via: ExactAudioCopy v1.0b3
#
DISCID=2f115604
DTITLE=Ozrosaurus - Juice [Single]
DYEAR=2003
DGENRE=Hip Hop
TTITLE0=Juice
TTITLE1=Mobb Sters feat. M.O.S.A.D. [Future Shock Remix]
TTITLE2=Juice [Instrumental]
TTITLE3=Data
EXTD=
EXTT0=
EXTT1=
EXTT2=
EXTT3=
PLAYORDER=
